<?xml version="1.0" encoding="UTF-8" standalone="no"?>
<!-- Created with Inkscape (http://www.inkscape.org/) -->

<svg
   width="529.16663mm"
   height="132.29166mm"
   viewBox="0 0 529.16663 132.29166"
   version="1.1"
   id="svg5"
   inkscape:version="1.2 (dc2aeda, 2022-05-15)"
   sodipodi:docname="calotron_logo_proj.svg"
   xmlns:inkscape="http://www.inkscape.org/namespaces/inkscape"
   xmlns:sodipodi="http://sodipodi.sourceforge.net/DTD/sodipodi-0.dtd"
   xmlns:xlink="http://www.w3.org/1999/xlink"
   xmlns="http://www.w3.org/2000/svg"
   xmlns:svg="http://www.w3.org/2000/svg">
  <sodipodi:namedview
     id="namedview7"
     pagecolor="#ffffff"
     bordercolor="#000000"
     borderopacity="0.25"
     inkscape:showpageshadow="2"
     inkscape:pageopacity="0.0"
     inkscape:pagecheckerboard="0"
     inkscape:deskcolor="#d1d1d1"
     inkscape:document-units="mm"
     showgrid="false"
     inkscape:zoom="0.17618661"
     inkscape:cx="2128.4251"
     inkscape:cy="187.3014"
     inkscape:window-width="1470"
     inkscape:window-height="816"
     inkscape:window-x="0"
     inkscape:window-y="37"
     inkscape:window-maximized="0"
     inkscape:current-layer="layer1" />
  <defs
     id="defs2">
    <linearGradient
       inkscape:collect="always"
       id="linearGradient17333">
      <stop
         style="stop-color:#051923;stop-opacity:1;"
         offset="0"
         id="stop17329" />
      <stop
         style="stop-color:#003554;stop-opacity:1;"
         offset="0.5"
         id="stop17337" />
      <stop
         style="stop-color:#006494;stop-opacity:1;"
         offset="0.75"
         id="stop17339" />
      <stop
         style="stop-color:#0582ca;stop-opacity:1;"
         offset="0.89999998"
         id="stop17341" />
    </linearGradient>
    <linearGradient
       inkscape:collect="always"
       xlink:href="#linearGradient17333"
       id="linearGradient657"
       gradientUnits="userSpaceOnUse"
       gradientTransform="matrix(0.39685349,0,0,0.39685349,-750.54259,-218.83104)"
       x1="546.45178"
       y1="820.50464"
       x2="1353.3647"
       y2="820.50464" />
  </defs>
  <g
     inkscape:label="Livello 1"
     inkscape:groupmode="layer"
     id="layer1"
     transform="translate(-469.15876,-286.86568)">
    <rect
       style="fill:none;fill-opacity:1;stroke:none;stroke-width:1.10053;stroke-linecap:square;stroke-linejoin:bevel;stroke-dasharray:none;stroke-opacity:1;paint-order:stroke fill markers"
       id="rect300112-6-1"
       width="529.16669"
       height="132.29167"
       x="469.15875"
       y="286.86569"
       ry="0"
       inkscape:export-filename="logo/calotron-logo.svg"
       inkscape:export-xdpi="59.52"
       inkscape:export-ydpi="59.52" />
    <g
       id="g493-9-0"
       transform="matrix(1.5748883,0,0,1.5748883,1322.0702,184.83065)">
      <text
         xml:space="preserve"
         style="font-style:normal;font-variant:normal;font-weight:bold;font-stretch:normal;font-size:75.847px;font-family:'Deceptibots Halftone';-inkscape-font-specification:'Deceptibots Halftone Bold';fill:#e8f1f2;fill-opacity:1;fill-rule:evenodd;stroke-width:15.8016;stroke-linecap:round;stroke-linejoin:round"
         x="-535.19788"
         y="120.89664"
         id="text519-3-5-7-0-9-0-3"><tspan
           sodipodi:role="line"
           id="tspan517-2-9-5-1-7-5-9"
           style="font-style:normal;font-variant:normal;font-weight:bold;font-stretch:normal;font-family:Transformers;-inkscape-font-specification:'Transformers Bold';fill:#e8f1f2;fill-opacity:1;stroke-width:15.8016"
           x="-535.19788"
           y="120.89664">Calotron</tspan></text>
      <path
         id="text519-3-5-9-7-7-2-8"
         style="font-style:normal;font-variant:normal;font-weight:bold;font-stretch:normal;font-size:338.6px;font-family:'Deceptibots Halftone';-inkscape-font-specification:'Deceptibots Halftone Bold';fill:url(#linearGradient657);fill-opacity:1;fill-rule:evenodd;stroke-width:15.8016;stroke-linecap:round;stroke-linejoin:round"
         d="m -476.49263,73.188818 -17.29321,47.632042 h 12.894 l 11.3013,-31.476605 6.90209,21.388885 h -10.39111 v 10.08772 h 26.69817 l -16.30706,-47.632042 z m 78.34996,0.30341 c -1.87081,0 -3.36257,0.429682 -4.47491,1.289286 -1.11242,0.859585 -1.87091,2.275411 -2.27542,4.247455 0.0506,6.017184 0.0758,12.059791 0.0758,18.127549 0,6.067782 -0.0252,12.414522 -0.0758,19.037642 0.2174,0.91315 0.56164,1.69088 1.02409,2.34224 v -10.55352 h 3.99094 v 12.83948 c 0.54191,0.0889 1.11001,0.15012 1.7353,0.15012 h 4.89153 v -9.06696 h 3.99092 v 9.06696 h 11.93553 v -16.53951 h 3.99094 v 16.5129 c 0.46064,-0.026 0.90272,-0.072 1.31824,-0.1462 v -19.19208 h 3.99046 v 16.75657 c 0.40251,-0.61529 0.70556,-1.33673 0.90394,-2.17 -0.0506,-6.62312 -0.076,-12.96986 -0.076,-19.037642 0,-6.067758 0.0254,-12.110365 0.076,-18.127549 -0.40451,-1.972044 -1.16308,-3.38787 -2.27542,-4.247455 -1.11242,-0.859604 -2.60421,-1.289286 -4.47503,-1.289286 z m 32.99347,0 v 9.935938 h 12.28718 v 37.696084 l 0.076,19.2651 12.89398,-4.62668 -0.0758,-20.8579 h -0.076 V 83.428166 h 7.20551 v -9.708485 z m 65.38018,0 -30.94562,0.0758 v 24.42276 l -0.0759,0.0758 0.0759,0.076 v 22.829932 h 6.95323 v -11.40976 h 3.99048 v 11.40975 h 1.95026 l -0.45503,-37.316842 h 11.68039 v 3.961428 h 2.27707 v 4.421416 h -2.27707 v 0.415458 h -3.03211 v 6.104648 h -3.99049 v -0.22572 -5.878928 h -2.38234 v 8.11568 l 2.38234,5.08365 v -2.94576 h 3.99049 v 11.46094 l 1.31822,2.81299 v -10.67599 h 3.99096 v 14.8188 h 6.62682 v -9.65363 l -1.22981,-2.58252 v 8.59735 h -4.16767 v -0.22573 -12.81886 h 2.04991 l -1.91565,-4.02289 h 4.85426 v -0.22757 c 1.36526,-0.252832 2.4524,-0.809032 3.26142,-1.668632 0.85951,-0.85959 1.46654,-2.123787 1.82041,-3.792424 V 93.515777 91.164545 86.76544 79.028999 c -0.40447,-1.972044 -1.16309,-3.38787 -2.27544,-4.247455 -1.11242,-0.859604 -2.60423,-1.289286 -4.47503,-1.289286 z m 15.62447,0 c -1.87084,0 -3.36258,0.429682 -4.47491,1.289286 -1.11243,0.859585 -1.87094,2.275411 -2.27545,4.247455 0.0506,6.017184 0.0759,12.059791 0.0759,18.127549 0,1.4972 -0.0159,3.166312 -0.0187,4.697412 h 2.44605 v 18.08115 c 1.0948,0.68854 2.50767,1.0374 4.24724,1.0374 h 24.27108 c 3.74166,0 5.9921,-1.59271 6.75048,-4.77832 -0.0506,-6.62312 -0.076,-12.96986 -0.076,-19.037642 0,-6.067758 0.0254,-12.110365 0.076,-18.127549 -0.40443,-1.972044 -1.1631,-3.38787 -2.27543,-4.247455 -1.11243,-0.859604 -2.60423,-1.289286 -4.47505,-1.289286 z m -245.89607,0.0758 c -0.70792,0.404525 -1.39063,0.860411 -2.04796,1.365224 -0.65736,0.45508 -1.18818,1.238818 -1.5927,2.351258 v 39.21295 c 0.40452,1.11244 0.93534,1.9468 1.5927,2.50301 0.65733,0.55621 1.34004,1.1883 2.04796,1.89621 h 30.26303 l 3.64063,-10.31528 -24.65033,0.076 V 83.731576 h 20.93387 l 3.71646,-10.163545 z m 85.70709,0 v 47.328652 h 37.54444 l -0.98324,-2.68892 h -1.40528 v -0.2257 -3.61718 l -1.32807,-3.63174 h -20.93375 l -0.076,-37.165112 z m 193.33407,0 v 47.328652 h 12.81828 l 0.15164,-37.392694 h 11.45296 V 120.6691 h 0.2276 v 0.22758 h 12.81816 l 0.0758,-47.328652 z m -52.00055,3.747952 h 3.99049 v 4.421908 h -3.99049 v -0.225726 z m 0.45146,0.451564 v 3.518781 h 3.08744 v -3.518781 z m 15.47499,2.093477 h 3.99095 v 4.421773 h -3.99095 v -0.225725 z m 0.45146,0.451453 v 3.518868 h 3.08791 v -3.518868 z m -104.6943,3.419099 h 10.61857 v 24.872587 h 2.06417 v 11.37642 h -4.00887 v -0.22619 -9.17299 h -1.29809 v 8.13523 h -4.01282 v -0.22573 -7.9095 h -3.36296 z m 113.99809,0 h 10.61857 V 110.5814 h -10.61857 z m -100.00638,0.567889 h 3.99094 v 4.421909 h -3.99094 V 88.49553 Z m 0.45157,0.451453 v 3.518888 h 3.08792 v -3.518885 z m 73.87311,1.588644 h 3.99049 v 4.421909 h -3.99049 v -0.225861 z m 0.45146,0.451429 V 90.3099 h 3.08744 v -3.518912 z m -4.04676,1.277507 v 3.518416 h 1.82549 v -3.518413 z m 19.52175,4.272341 h 3.99095 v 4.421775 h -3.99095 v -0.225727 z m -26.09277,0.113101 v 5.653201 h 3.08745 v -5.653201 z m 26.54423,0.338352 v 3.518868 h 3.08791 v -3.518868 z m -37.13931,2.211641 h 3.99048 v 4.421768 h -3.99048 v -0.2257 z m 0.45146,0.451898 v 3.51844 h 3.08756 v -3.51844 z m -22.16134,1.175512 h 3.99093 v 4.42191 h -3.99093 v -0.22572 z m 0.45158,0.451568 v 3.518892 h 3.08792 v -3.518892 z m 15.94915,1.9482 h 3.99092 v 4.421882 h -3.99092 v -0.22573 z m 0.45154,0.45156 v 3.518752 h 3.08792 v -3.518752 z m 41.52708,0.25987 h 4.02727 V 118.4834 h -4.02727 v -0.22572 z m -21.21726,0.2336 h 3.99096 v 4.421892 h -3.99096 v -0.22584 z m 21.66916,0.217852 v 17.83796 h 3.12379 v -17.83796 z m -64.14032,0.0949 h 3.99096 v 28.24318 h -3.99096 v -0.22586 z m 42.92275,0.13865 v 3.5189 h 3.08779 v -3.5189 z m -42.47081,0.31292 v 27.34004 h 3.08744 v -27.34001 z m -48.2319,0.8671 h 3.99094 v 4.42189 h -3.99094 v -0.22584 z m 74.79891,0.25156 h 3.99048 v 6.40677 h -3.99048 v -0.2257 z m -74.34734,0.1999 v 3.51887 h 3.08792 v -3.51887 z m 26.54468,0 v 18.65588 c 1.29226,-0.30498 2.3257,-0.8864 3.08746,-1.75786 v -16.89802 z m 80.72449,0.24633 c -0.01,4.53667 -0.0183,9.05691 -0.0553,13.88878 0.35523,1.49199 1.04206,2.62988 2.05166,3.42307 v -17.31185 z m -32.47037,0.006 v 5.50387 h 3.08756 v -5.50387 z m 10.14362,0.84838 v 3.45798 l 3.08745,6.58816 v -10.04614 z m -63.70679,1.72546 v 16.08806 h 3.00156 c 0.0302,0 0.0565,-0.004 0.0864,-0.004 V 104.8848 Z m 74.23623,0.008 v 12.14113 h 3.26424 v -9.0935 l -1.45125,-3.04763 z m -26.43367,0.76375 h 3.99092 v 14.34721 h -3.99092 v -0.22584 z m 0.45154,0.45157 v 13.44408 h 3.08792 v -13.44408 z m -16.85227,0.44935 h 3.99093 v 16.33244 h -3.99093 v -0.22611 z m 37.61368,0.19992 v 11.18799 l 1.4899,3.17924 h 1.59789 v -14.36762 z m -37.1621,0.25155 v 15.42952 h 3.08792 v -15.42952 z m -58.39775,1.42589 v 10.66325 c 0.77161,0.82182 1.81016,1.35859 3.08792,1.63991 v -12.30352 z m 22.71963,0.62162 v 1.52532 h -1.49326 v 8.94726 h 3.10587 v -10.47258 z m -17.86249,0.49173 h 3.99094 v 10.3772 h -3.99094 v -0.22572 z m 0.45157,0.45157 v 9.47407 h 3.08792 v -9.47407 z m 74.7988,0.0148 v 10.9583 h 3.08756 v -10.9583 z m -64.19193,0.56722 v 7.68379 h 3.1098 v -7.6838 z m -5.2977,1.71468 v 8.6764 h 3.08745 v -8.67676 z m 95.55974,0.12293 v 8.70523 h 3.08791 v -2.22102 z M -441.031,113.7872 h 3.99047 v 4.42132 h -3.99047 v -0.22571 z m 5.30871,0 h 3.99081 v 4.42132 h -3.99081 v -0.22571 z m 5.30905,0 h 3.99047 v 4.42132 h -3.99047 v -0.22571 z m 5.3087,0 h 3.99094 v 4.42132 h -3.99094 v -0.22571 z m 5.30917,0 h 3.99047 v 4.42132 h -3.99047 v -0.22571 z m 5.30859,0 h 3.99093 v 4.42132 h -3.99093 v -0.22571 z m -26.09277,0.45145 v 3.51844 h 3.08746 v -3.51844 z m 5.30871,0 v 3.51844 h 3.08792 v -3.51844 z m 5.30916,0 v 3.51844 h 3.08746 v -3.51844 z m 5.30859,0 v 3.51844 h 3.08792 v -3.51844 z m 5.30917,0 v 3.51844 h 3.08746 v -3.51844 z m 5.30871,0 v 3.51844 h 3.08792 v -3.51844 z m 5.30905,1.36164 v 2.1568 h 0.78865 z m 115.02566,4.25208 v 1.27263 h 0.60599 z m -51.90032,6.55636 h 3.99061 v 4.42189 h -3.99061 v -0.22573 z m 0.45158,0.45157 v 3.51875 h 3.08745 v -3.51875 z" />
    </g>
  </g>
</svg>
